<mxfile host="app.diagrams.net" agent="Mozilla/5.0 (Macintosh; Intel Mac OS X 10_15_7) AppleWebKit/537.36 (KHTML, like Gecko) Chrome/131.0.0.0 Safari/537.36" version="24.8.4">
  <diagram name="Page-1" id="_493iPMfWterIu8goGuG">
    <mxGraphModel dx="1368" dy="801" grid="1" gridSize="10" guides="1" tooltips="1" connect="1" arrows="1" fold="1" page="1" pageScale="1" pageWidth="827" pageHeight="1169" math="0" shadow="0">
      <root>
        <mxCell id="0" />
        <mxCell id="1" parent="0" />
        <mxCell id="tTSFyH0JSTib0KhG9x39-1" value="Director&lt;div&gt;&lt;br&gt;&lt;/div&gt;" style="shape=umlActor;verticalLabelPosition=bottom;verticalAlign=top;html=1;outlineConnect=0;" vertex="1" parent="1">
          <mxGeometry x="235" y="140" width="30" height="60" as="geometry" />
        </mxCell>
        <mxCell id="tTSFyH0JSTib0KhG9x39-17" value="" style="rounded=0;whiteSpace=wrap;html=1;" vertex="1" parent="1">
          <mxGeometry x="340" y="50" width="240" height="680" as="geometry" />
        </mxCell>
        <mxCell id="tTSFyH0JSTib0KhG9x39-4" value="&lt;div&gt;Administrator&lt;/div&gt;" style="shape=umlActor;verticalLabelPosition=bottom;verticalAlign=top;html=1;outlineConnect=0;" vertex="1" parent="1">
          <mxGeometry x="235" y="260" width="30" height="60" as="geometry" />
        </mxCell>
        <mxCell id="tTSFyH0JSTib0KhG9x39-5" value="&lt;div&gt;Student&lt;/div&gt;" style="shape=umlActor;verticalLabelPosition=bottom;verticalAlign=top;html=1;outlineConnect=0;" vertex="1" parent="1">
          <mxGeometry x="235" y="380" width="30" height="60" as="geometry" />
        </mxCell>
        <mxCell id="tTSFyH0JSTib0KhG9x39-6" value="&lt;div&gt;Parent&lt;/div&gt;" style="shape=umlActor;verticalLabelPosition=bottom;verticalAlign=top;html=1;outlineConnect=0;" vertex="1" parent="1">
          <mxGeometry x="235" y="470" width="30" height="60" as="geometry" />
        </mxCell>
        <mxCell id="tTSFyH0JSTib0KhG9x39-9" value="Teacher" style="shape=umlActor;verticalLabelPosition=bottom;verticalAlign=top;html=1;outlineConnect=0;" vertex="1" parent="1">
          <mxGeometry x="235" y="600" width="30" height="60" as="geometry" />
        </mxCell>
        <mxCell id="tTSFyH0JSTib0KhG9x39-13" value="Statistics" style="ellipse;whiteSpace=wrap;html=1;aspect=fixed;" vertex="1" parent="1">
          <mxGeometry x="400" y="110" width="120" height="120" as="geometry" />
        </mxCell>
        <mxCell id="tTSFyH0JSTib0KhG9x39-14" value="User&amp;nbsp;&lt;div&gt;Management&lt;/div&gt;" style="ellipse;whiteSpace=wrap;html=1;aspect=fixed;" vertex="1" parent="1">
          <mxGeometry x="400" y="240" width="120" height="120" as="geometry" />
        </mxCell>
        <mxCell id="tTSFyH0JSTib0KhG9x39-15" value="See Grades" style="ellipse;whiteSpace=wrap;html=1;aspect=fixed;" vertex="1" parent="1">
          <mxGeometry x="400" y="410" width="120" height="120" as="geometry" />
        </mxCell>
        <mxCell id="tTSFyH0JSTib0KhG9x39-16" value="Manage&lt;div&gt;Grades&lt;/div&gt;" style="ellipse;whiteSpace=wrap;html=1;aspect=fixed;" vertex="1" parent="1">
          <mxGeometry x="400" y="580" width="120" height="120" as="geometry" />
        </mxCell>
        <mxCell id="tTSFyH0JSTib0KhG9x39-18" value="" style="endArrow=classic;html=1;rounded=0;entryX=0;entryY=0.5;entryDx=0;entryDy=0;" edge="1" parent="1" target="tTSFyH0JSTib0KhG9x39-13">
          <mxGeometry width="50" height="50" relative="1" as="geometry">
            <mxPoint x="280" y="195" as="sourcePoint" />
            <mxPoint x="330" y="145" as="targetPoint" />
          </mxGeometry>
        </mxCell>
        <mxCell id="tTSFyH0JSTib0KhG9x39-19" value="" style="endArrow=classic;html=1;rounded=0;entryX=0;entryY=0.5;entryDx=0;entryDy=0;" edge="1" parent="1" target="tTSFyH0JSTib0KhG9x39-14">
          <mxGeometry width="50" height="50" relative="1" as="geometry">
            <mxPoint x="280" y="310" as="sourcePoint" />
            <mxPoint x="410" y="180" as="targetPoint" />
          </mxGeometry>
        </mxCell>
        <mxCell id="tTSFyH0JSTib0KhG9x39-20" value="" style="endArrow=classic;html=1;rounded=0;" edge="1" parent="1" target="tTSFyH0JSTib0KhG9x39-15">
          <mxGeometry width="50" height="50" relative="1" as="geometry">
            <mxPoint x="280" y="430" as="sourcePoint" />
            <mxPoint x="410" y="310" as="targetPoint" />
          </mxGeometry>
        </mxCell>
        <mxCell id="tTSFyH0JSTib0KhG9x39-21" value="" style="endArrow=classic;html=1;rounded=0;entryX=0;entryY=0.5;entryDx=0;entryDy=0;" edge="1" parent="1" target="tTSFyH0JSTib0KhG9x39-15">
          <mxGeometry width="50" height="50" relative="1" as="geometry">
            <mxPoint x="270" y="520" as="sourcePoint" />
            <mxPoint x="428" y="438" as="targetPoint" />
          </mxGeometry>
        </mxCell>
        <mxCell id="tTSFyH0JSTib0KhG9x39-22" value="" style="endArrow=classic;html=1;rounded=0;entryX=0;entryY=0.5;entryDx=0;entryDy=0;" edge="1" parent="1" target="tTSFyH0JSTib0KhG9x39-16">
          <mxGeometry width="50" height="50" relative="1" as="geometry">
            <mxPoint x="270" y="650" as="sourcePoint" />
            <mxPoint x="410" y="480" as="targetPoint" />
          </mxGeometry>
        </mxCell>
        <mxCell id="tTSFyH0JSTib0KhG9x39-23" value="Notenverwalungsystem" style="text;html=1;align=center;verticalAlign=middle;whiteSpace=wrap;rounded=0;" vertex="1" parent="1">
          <mxGeometry x="430" y="60" width="60" height="30" as="geometry" />
        </mxCell>
      </root>
    </mxGraphModel>
  </diagram>
</mxfile>
